<?xml version="1.0" encoding="UTF-8" standalone="no"?>
<!-- Created with Inkscape (http://www.inkscape.org/) -->

<svg
   xmlns:dc="http://purl.org/dc/elements/1.1/"
   xmlns:cc="http://creativecommons.org/ns#"
   xmlns:rdf="http://www.w3.org/1999/02/22-rdf-syntax-ns#"
   xmlns:svg="http://www.w3.org/2000/svg"
   xmlns="http://www.w3.org/2000/svg"
   xmlns:sodipodi="http://sodipodi.sourceforge.net/DTD/sodipodi-0.dtd"
   xmlns:inkscape="http://www.inkscape.org/namespaces/inkscape"
   width="110.8462"
   height="153.97427"
   id="svg2"
   version="1.1"
   inkscape:version="0.48.2 r9819"
   sodipodi:docname="baruffio.svg">
  <defs
     id="defs4" />
  <sodipodi:namedview
     id="base"
     pagecolor="#ffffff"
     bordercolor="#666666"
     borderopacity="1.0"
     inkscape:pageopacity="0"
     inkscape:pageshadow="2"
     inkscape:zoom="1"
     inkscape:cx="31.771684"
     inkscape:cy="-44.308147"
     inkscape:document-units="px"
     inkscape:current-layer="layer2"
     showgrid="false"
     inkscape:window-width="1187"
     inkscape:window-height="726"
     inkscape:window-x="74"
     inkscape:window-y="2"
     inkscape:window-maximized="0"
     fit-margin-top="0"
     fit-margin-left="0"
     fit-margin-right="0"
     fit-margin-bottom="0"
     inkscape:showpageshadow="false"
     showborder="true" />
  <metadata
     id="metadata7">
    <rdf:RDF>
      <cc:Work
         rdf:about="">
        <dc:format>image/svg+xml</dc:format>
        <dc:type
           rdf:resource="http://purl.org/dc/dcmitype/StillImage" />
        <dc:title />
      </cc:Work>
    </rdf:RDF>
  </metadata>
  <g
     inkscape:groupmode="layer"
     id="layer2"
     inkscape:label="Layer"
     style="display:inline"
     transform="translate(-318.25032,-401.00531)">
    <path
       style="fill:#ffffff"
       d="m 339.47618,485.28343 c -3.83972,2.83089 -3.00361,5.01636 10.71395,28.30622 3.25701,5.5298 6.97875,13.29871 8.29008,17.26645 2.91128,8.8085 2.7767,8.59816 5.71668,7.85372 2.56725,-0.65007 5.80916,4.33598 5.57183,8.11962 -1.85816,4.52423 -44.84831,-1.95608 -51.3215,1.55359 -0.54608,3.76281 -0.16492,6.81143 3.85802,6.58466 86.66054,-4.8848 83.18316,-2.47044 97.23802,-1.67642 14.95611,-0.78477 8.71769,-2.55136 5.37444,-5.46358 -9.52365,-2.29292 -44.45149,1.31422 -52.26053,-3.98267 -2.11372,-1.71875 -4.23445,-8.87726 -2.86377,-9.88782 0.60733,-0.44776 1.88171,0.89556 3.12239,3.30353 2.909,5.64597 5.7133,5.4897 3.62851,-0.20214 -1.38017,-3.76813 -3.12164,-5.96183 -8.88659,-11.15516 -3.93985,-3.54919 -7.37329,-7.24254 -7.63188,-8.22229 -0.25858,-0.97976 1.34567,-2.44218 3.56241,-3.25293 2.71952,-0.99463 3.43653,-1.84539 2.22892,-2.59955 -0.98434,-0.61474 -2.33584,-0.71793 -3.00888,-0.22172 -0.67306,0.49621 -2.92568,0.172 -5.00271,-0.73017 -3.63077,-1.57706 -3.76483,-1.89782 -3.86076,-8.43064 -0.0549,-3.73718 1.07461,-8.3152 2.53074,-10.17522 4.116,-5.25772 4.99202,-7.33798 3.4889,-8.27671 -0.76236,-0.47611 -2.56468,0.9239 -4.00523,3.0848 -4.17132,6.25718 -6.59021,7.49597 -8.60498,4.43166 -4.00272,-6.08786 -5.96044,-7.64101 -7.87806,-6.22723 z m 34.65761,-83.1161 c -1.71176,1.37156 -2.77989,4.83589 -2.39678,7.7283 0.38309,2.89242 -0.23168,6.00805 -1.33092,6.90983 -2.86036,2.34656 0.5236,6.51837 4.11059,5.07505 1.65365,-0.66542 5.01577,-2.43977 7.45453,-3.98968 4.0391,-2.56696 3.97597,-3.19732 -0.6743,-6.77522 -3.94539,-3.03563 -4.99513,-4.79437 -4.58351,-7.70797 0.3932,-2.78305 -0.28212,-3.08123 -2.57961,-1.24031 z m -11.48533,34.5962 c 4.94744,0.31369 5.96766,5.67444 1.47042,7.0172 -3.88988,1.16142 -3.95484,2.53194 -0.42425,9.80226 5.3504,11.01771 5.73718,23.12499 0.75237,24.10917 -2.45216,0.48413 -2.92706,1.63102 -1.29261,3.24216 2.97069,2.92837 3.31349,2.72888 9.12616,-5.30508 5.18707,-7.16924 14.65173,-8.98861 18.27331,-3.52274 3.64825,5.50618 5.50415,2.80821 3.86204,-5.62976 -1.80517,-9.27654 -4.59678,-11.16547 -10.046,-6.69508 -2.39391,1.96387 -4.68119,2.2403 -5.0744,0.58256 -0.42696,-1.80022 1.64221,-3.60453 5.16181,-4.45835 6.827,-1.65615 11.37425,-10.86073 7.32732,-14.84996 -1.47227,-1.4513 -3.38113,-2.09319 -4.24559,-1.38401 -3.39778,2.78742 -5.36285,-0.63702 -2.879,-5.02251 3.39402,-5.9923 0.46618,-10.45203 -4.29816,-6.54351 -2.13499,1.75149 -5.35248,1.51895 -7.65442,-0.54547 -2.62706,-2.35597 -5.90738,-2.25049 -9.75916,0.34205 -0.34494,0.23213 -0.69008,0.46664 -0.99298,0.70273 -2.61306,4.53896 -2.39111,8.69539 0.69314,8.15834 z"
       id="path3050"
       inkscape:connector-curvature="0"
       sodipodi:nodetypes="ssssccscccssssssssssscssscssssssccsssssscscssscssccc" />
  </g>
</svg>
