<?xml version="1.0" encoding="UTF-8" standalone="no"?>
<!-- Created with Inkscape (http://www.inkscape.org/) -->

<svg
   xmlns:dc="http://purl.org/dc/elements/1.1/"
   xmlns:cc="http://creativecommons.org/ns#"
   xmlns:rdf="http://www.w3.org/1999/02/22-rdf-syntax-ns#"
   xmlns:svg="http://www.w3.org/2000/svg"
   xmlns="http://www.w3.org/2000/svg"
   xmlns:sodipodi="http://sodipodi.sourceforge.net/DTD/sodipodi-0.dtd"
   xmlns:inkscape="http://www.inkscape.org/namespaces/inkscape"
   width="77.357224"
   height="177.98222"
   id="svg2"
   version="1.1"
   inkscape:version="0.48.2 r9819"
   sodipodi:docname="threebuffalo.svg">
  <defs
     id="defs4" />
  <sodipodi:namedview
     id="base"
     pagecolor="#ffffff"
     bordercolor="#666666"
     borderopacity="1.0"
     inkscape:pageopacity="0.0"
     inkscape:pageshadow="2"
     inkscape:zoom="3.4335614"
     inkscape:cx="15.670856"
     inkscape:cy="80.343391"
     inkscape:document-units="px"
     inkscape:current-layer="layer1"
     showgrid="false"
     inkscape:window-width="1187"
     inkscape:window-height="726"
     inkscape:window-x="33"
     inkscape:window-y="25"
     inkscape:window-maximized="0"
     inkscape:showpageshadow="false"
     showborder="true"
     fit-margin-top="0"
     fit-margin-left="0"
     fit-margin-right="0"
     fit-margin-bottom="0" />
  <metadata
     id="metadata7">
    <rdf:RDF>
      <cc:Work
         rdf:about="">
        <dc:format>image/svg+xml</dc:format>
        <dc:type
           rdf:resource="http://purl.org/dc/dcmitype/StillImage" />
        <dc:title />
      </cc:Work>
    </rdf:RDF>
  </metadata>
  <g
     inkscape:label="Layer 1"
     inkscape:groupmode="layer"
     id="layer1"
     transform="translate(-364.38334,-542.90879)">
    <path
       style="fill:#ffffff"
       d="m 65.03125,0 c -0.419044,0.04854062 -0.925583,0.253395 -1.5,0.625 C 62.37937,1.37021 59.87966,2.21131 58,2.46875 56.12033,2.72615 53.81484,3.40629 52.84375,4 51.87269,4.59372 49.66559,5.07562 47.9375,5.0625 43.31693,4.27314 40.80048,7.47004 36.28125,9.4375 28.63534,12.99904 25.48313,21.14564 20.875,27.15625 c -3.89711,10.60057 -6.36777,17.9377 -2.6875,25 l 2.6875,4.625 -2.09375,6.78125 c -1.71924,5.58707 -1.91632,7.53486 -1.09375,10.78125 0.88894,3.50832 -0.11063,12.05354 -1.375,11.75 -0.26683,-0.0641 -2.15126,-1.75657 -4.21875,-3.75 C 7.75059,78.15613 6.05361,73.4626 7.28125,68.90625 8.2329,65.37424 6.11599,59.06052 3.78125,58.5 1.71528,58.00401 1.34816,61.12107 2.9375,65.53125 c 0.76586,2.12515 1.14288,6.15501 0.84375,8.9375 -0.45083,4.19354 -0.11594,5.53683 1.96875,7.84375 1.56203,1.72851 2.77132,4.71884 3.1875,7.9375 0.36856,2.85024 1.38967,5.94151 2.28125,6.84375 2.47688,2.50649 1.40801,4.30919 -1.5625,2.625 C 5.9671952,98.043008 5.004778,91.916402 1.84375,90.875 1.59717,90.8033 1.37856,90.77875 1.21875,90.84375 c -1.91919,0.7811 0.012582,1.751468 0.71875,2.96875 3.4100274,2.666105 5.1164804,6.6867 9.3125,7.8125 1.97872,0.47505 4.22282,1.43564 4.96875,2.15625 2.89735,2.79902 10.06801,6.32552 15.84375,7.78125 6.60968,1.66596 8.05054,2.8641 4.8125,3.9375 -1.15434,0.38267 -2.82907,1.20338 -3.71875,1.84375 -0.8897,0.64037 -3.58417,1.78692 -6,2.53125 -2.50988,0.77329 -5.13306,2.44718 -6.125,3.9375 -0.95474,1.43447 -2.39104,3.23886 -3.1875,3.96875 -2.05046,1.87907 -6.14661,15.07415 -6.15625,19.875 -0.005,2.21573 1.13599,6.57781 2.5,9.6875 1.36399,3.10967 2.3599,6.13078 2.21875,6.71875 -0.14116,0.58798 0.87771,3.49767 2.28125,6.46875 1.40353,2.97107 2.48571,5.78887 2.375,6.25 -0.11071,0.46113 0.37445,0.97606 1.125,1.15625 0.75056,0.18019 1.54091,-0.3791 1.75,-1.25 0.31784,-1.32392 3.28808,-1.58693 4.3125,-0.375 0.16281,0.19261 1.39395,-0.31938 2.6875,-1.15625 1.5788,-1.02177 2.99719,-1.13082 4.375,-0.34375 1.2842,0.73361 2.60557,0.71303 3.5,-0.0625 1.94408,-1.68558 1.5363,-9.79791 -0.625,-12.625 -1.87406,-2.45137 -1.73495,-3.48014 0.59375,-5.15625 1.51555,-1.09086 1.99645,-0.69992 4.21875,3.1875 2.85311,4.99089 2.98972,5.03188 8.4375,4.21875 3.2093,-0.47903 4.24109,-1.18236 5.34375,-3.71875 1.35971,-3.12772 0.92337,-5.44313 -0.6875,-3.625 -0.46326,0.52282 -1.14422,0.63017 -1.5,0.21875 -0.35578,-0.41139 -1.14928,0.12594 -1.75,1.21875 -0.60074,1.09283 -1.47084,1.8933 -1.9375,1.78125 -0.46664,-0.11202 -1.16303,-0.12012 -1.5625,-0.0625 -0.39948,0.0576 -0.47879,-1.29781 -0.1875,-3 0.29127,-1.70219 0.24734,-4.90705 -0.09375,-7.125 -0.56787,-3.69275 -0.91552,-4.07215 -3.875,-4.21875 -2.78731,-0.13808 -3.13182,-0.43056 -2.6875,-2.28125 0.28334,-1.18024 1.55444,-3.24208 2.84375,-4.5625 1.47322,-1.22176 2.05704,-4.65489 5.875,-4.96875 3.61888,-1.00398 11.60834,2.21895 11.78125,3.1875 0.0546,0.9046 -0.3973,1.06786 -1.21875,0.4375 -1.49937,-1.15059 -2.1689,0.76667 -1.8125,5.15625 0.38306,4.71792 2.64573,4.21251 4.65625,-1.0625 2.21568,-5.81333 3.34741,-5.19162 4.71875,2.71875 1.43211,8.26093 2.02409,9.2494 4.09375,6.625 1.37806,-1.74741 1.49005,-2.43288 0.625,-3.625 -0.58231,-0.80249 -0.8227,-1.89341 -0.53125,-2.4375 0.71776,-1.33991 -0.5235,-4.50818 -2.5625,-6.5625 -1.10984,-1.1182 -1.52136,-3.18351 -1.25,-6.15625 C 70.07664,128.39199 69.84082,127.85846 68,128 c -1.15754,0.089 -3.06739,0.23538 -4.25,0.3125 -1.51351,0.0987 -2.63428,-0.83785 -3.8125,-3.125 -2.22242,-4.31419 -1.74852,-5.67189 3.125,-8.84375 5.24335,-3.41256 10.44504,-10.93675 7.96875,-11.53125 -0.50037,-0.12013 -1.16208,0.8164 -1.46875,2.09375 -0.64983,2.70676 -2.70899,0.56529 -2.78125,-3.21875 C 74.2996,93.74278 77.55103,93.13865 77.75,83.90625 c -2.72187,-4.78451 -0.88201,-7.23155 -1.59375,-7.3125 -1.2734,-0.25383 -1.80791,-1.37466 -3.6875,-0.03125 -1.4141,-1.23663 -5.05522,-0.37152 -6.15625,-0.59375 -2.20368,-0.49967 0.21358,-0.90679 -3.09375,-1.40625 -3.50172,3.27082 -0.41345,2.68297 -3.96875,5.875 0.049,0.75349 -4.38549,4.25431 -6.71875,6.53125 -2.00073,1.95244 -13.98602,6.85227 -16.4375,5.5625 C 26.96853,87.29723 20.69246,71.63032 21.25,67.75 c 0.78064,-3.25157 4.4991,-8.41656 5.84375,-8.09375 0.51685,0.12409 2.14814,1.94705 3.59375,4.0625 3.41841,5.00231 7.39206,6.89443 11.90625,5.65625 2.55847,-0.70175 3.6746,-1.62395 4.125,-3.5 0.33842,-1.40963 1.66878,-3.4001 2.96875,-4.40625 1.29997,-1.00616 2.50471,-2.45732 2.6875,-3.21875 0.42007,-1.74967 0.90033,-1.59974 2.96875,0.8125 0.91572,1.0679 2.7447,2.50042 4.0625,3.21875 2.28857,1.24752 2.44798,1.16013 2.96875,-2.21875 0.49762,-3.22892 0.27707,-3.57569 -2.3125,-3.90625 -2.0921,-0.26706 -3.19719,-1.19562 -4.21875,-3.5625 -1.98192,-2.1373 -3.57464,-5.1564 -6.09375,-6.5 -2.27062,-0.54513 -4.21651,-6.05265 -3.4375,-9.6875 5.96713,-8.86941 4.58023,-4.78669 10.875,-10.9375 2.18688,-2.12179 4.21305,-4.7162 4.46875,-5.78125 0.61984,-2.58184 3.24364,-2.95605 6.03125,-0.84375 1.2469,0.94482 3.63992,1.71439 5.3125,1.71875 2.92383,0.008 2.99544,-0.0617 1.78125,-2.15625 -1.61651,-2.78865 -12.46015,-6.16499 -13.5625,-4.21875 -0.39684,0.7006 -1.63882,1.9502 -2.75,2.75 -2.59671,1.86902 -10.8487,-0.3289 -10.6875,-2.84375 0.14543,-2.26932 6.12687,-7.17471 8.15625,-6.6875 0.92052,0.221 2.43604,-0.12772 3.34375,-0.78125 0.90772,-0.65336 2.87649,-1.06268 4.375,-0.90625 C 65.78442,5.94087 66.40361,5.51856 66.5625,3.8125 66.809633,1.158925 66.288383,-0.14562187 65.03125,0 z"
       transform="translate(363.99057,542.91977)"
       id="path3050"
       inkscape:connector-curvature="0"
       sodipodi:nodetypes="scccccccccscsssssssscccccssssscscscssssscscsssssccscccssccccssssssssssssssscccccccscccssssccscsccccsscscscsccss" />
  </g>
</svg>
